<svg xmlns="http://www.w3.org/2000/svg" width="1280" height="720" viewBox="0 0 1280 720">
  <defs>
    <linearGradient id="desk" x1="0" y1="0" x2="1" y2="1"><stop stop-color="#120b05"/><stop offset="0.5" stop-color="#2a1a0c"/><stop offset="1" stop-color="#080503"/></linearGradient>
    <radialGradient id="glow" cx="50%" cy="42%" r="60%"><stop stop-color="#d8b46b" stop-opacity=".30"/><stop offset=".65" stop-color="#6b1025" stop-opacity=".14"/><stop offset="1" stop-color="#000" stop-opacity="0"/></radialGradient>
    <linearGradient id="paper" x1="0" y1="0" x2="1" y2="1"><stop stop-color="#efe4c2"/><stop offset=".62" stop-color="#d3bd88"/><stop offset="1" stop-color="#aa8750"/></linearGradient>
    <filter id="shadow"><feDropShadow dx="0" dy="18" stdDeviation="24" flood-color="#000" flood-opacity=".45"/></filter>
  </defs>
  <rect width="1280" height="720" fill="url(#desk)"/>
  <rect width="1280" height="720" fill="url(#glow)"/>
  <circle cx="1040" cy="120" r="72" fill="#f2c879" opacity=".18"/>
  <g filter="url(#shadow)" transform="translate(390 78) rotate(-2)">
    <rect width="500" height="560" rx="8" fill="url(#paper)"/>
    <rect x="32" y="32" width="436" height="496" rx="4" fill="none" stroke="#7d5d2c" stroke-opacity=".24" stroke-width="2"/>
    <path d="M170 118c56-35 109-35 160 0" fill="none" stroke="#7b1730" stroke-width="3" opacity=".35"/>
    <text x="250" y="182" text-anchor="middle" font-family="Georgia,serif" font-size="54" fill="#1a1208" opacity=".88">The Courier</text>
    <text x="250" y="236" text-anchor="middle" font-family="Georgia,serif" font-size="46" fill="#6b1025" opacity=".9">of Hearts</text>
    <text x="250" y="286" text-anchor="middle" font-family="Georgia,serif" font-size="22" font-style="italic" fill="#1a1208" opacity=".55">Send a letter worth keeping.</text>
    <rect x="158" y="340" width="184" height="48" rx="2" fill="#1a1208"/>
    <text x="250" y="371" text-anchor="middle" font-family="Arial,sans-serif" font-size="13" letter-spacing="3" fill="#e8d8ae">BEGIN A LETTER</text>
    <g transform="translate(222 424)">
      <circle cx="28" cy="28" r="28" fill="#7b1730"/>
      <path d="M28 42s-17-11-17-23c0-7 5-12 11-12 4 0 6 2 6 5 0-3 2-5 6-5 6 0 11 5 11 12 0 12-17 23-17 23z" fill="#edd9ad" opacity=".86"/>
    </g>
  </g>
  <text x="640" y="680" text-anchor="middle" font-family="Arial,sans-serif" font-size="14" letter-spacing="4" fill="#d8c18c" opacity=".45">LANDING PAGE</text>
</svg>
