<svg xmlns="http://www.w3.org/2000/svg" viewBox="0 0 64 64" role="img" aria-label="Courier of Hearts wax seal favicon">
  <defs>
    <radialGradient id="wax" cx="36%" cy="28%" r="72%">
      <stop offset="0" stop-color="#b33a5b"/>
      <stop offset="0.42" stop-color="#7b1730"/>
      <stop offset="1" stop-color="#3e0814"/>
    </radialGradient>
    <linearGradient id="paper" x1="16" y1="18" x2="48" y2="49" gradientUnits="userSpaceOnUse">
      <stop offset="0" stop-color="#efe2bd"/>
      <stop offset="1" stop-color="#b99d63"/>
    </linearGradient>
    <filter id="shadow" x="-25%" y="-25%" width="150%" height="150%">
      <feDropShadow dx="0" dy="3" stdDeviation="2.2" flood-color="#1a1208" flood-opacity="0.35"/>
    </filter>
  </defs>

  <rect width="64" height="64" rx="14" fill="#1a1208"/>
  <circle cx="32" cy="32" r="29" fill="#2c1c0d"/>

  <g filter="url(#shadow)">
    <path d="M14 22.5c0-2.5 2-4.5 4.5-4.5h27c2.5 0 4.5 2 4.5 4.5v20c0 2.5-2 4.5-4.5 4.5h-27c-2.5 0-4.5-2-4.5-4.5z" fill="url(#paper)"/>
    <path d="M16 21l16 14 16-14" fill="none" stroke="#6f562b" stroke-width="2" stroke-linecap="round" stroke-linejoin="round" opacity="0.48"/>
    <path d="M16 45l12.5-12M48 45L35.5 33" fill="none" stroke="#6f562b" stroke-width="1.5" stroke-linecap="round" opacity="0.32"/>
  </g>

  <g filter="url(#shadow)">
    <path d="M32 20.6c2.7-2 6.2-.6 7.2 2.4 3.2-.2 5.6 2.6 4.8 5.7 2.6 1.9 2.6 5.7 0 7.6.8 3.1-1.6 5.9-4.8 5.7-1 3-4.5 4.4-7.2 2.4-2.7 2-6.2.6-7.2-2.4-3.2.2-5.6-2.6-4.8-5.7-2.6-1.9-2.6-5.7 0-7.6-.8-3.1 1.6-5.9 4.8-5.7 1-3 4.5-4.4 7.2-2.4z" fill="url(#wax)"/>
    <circle cx="32" cy="32.5" r="10.8" fill="none" stroke="#f4c5a0" stroke-opacity="0.25" stroke-width="1.6"/>
    <path d="M32 39.5s-8.2-5.2-8.2-10.7c0-3.1 2.1-5.2 4.7-5.2 1.7 0 2.9.9 3.5 2.2.6-1.3 1.8-2.2 3.5-2.2 2.6 0 4.7 2.1 4.7 5.2 0 5.5-8.2 10.7-8.2 10.7z" fill="#f8e5c0" fill-opacity="0.88"/>
  </g>
</svg>
